<svg xmlns="http://www.w3.org/2000/svg" width="36" height="35" viewBox="0 0 36 35"><defs><style>.a{fill:#522e90;}.b{fill:none;stroke:#fff;stroke-linecap:round;stroke-linejoin:round;}</style></defs><g transform="translate(-1093 -3512)"><ellipse class="a" cx="17.5" cy="18" rx="17.5" ry="18" transform="translate(1093 3547) rotate(-90)"/><g transform="translate(1105 3524)"><path class="b" d="M5.887,3h5.774a2.887,2.887,0,0,1,2.887,2.887v5.774a2.887,2.887,0,0,1-2.887,2.887H5.887A2.887,2.887,0,0,1,3,11.661V5.887A2.887,2.887,0,0,1,5.887,3Z" transform="translate(-3 -3)"/><path class="b" d="M16.659,13.906a2.31,2.31,0,1,1-1.946-1.946,2.31,2.31,0,0,1,1.946,1.946Z" transform="translate(-8.575 -8.495)"/><path class="b" d="M26.25,9.75h0" transform="translate(-17.3 -7.152)"/></g></g></svg>