<svg xmlns="http://www.w3.org/2000/svg" width="36" height="35" viewBox="0 0 36 35"><defs><style>.a{fill:#522e90;}.b{fill:#fff;}</style></defs><g transform="translate(-1154 -3512)"><ellipse class="a" cx="17.5" cy="18" rx="17.5" ry="18" transform="translate(1154 3547) rotate(-90)"/><path class="b" d="M2.321,10.367H.171V3.446H2.321ZM1.245,2.5A1.251,1.251,0,1,1,2.489,1.245,1.255,1.255,0,0,1,1.245,2.5Zm9.12,7.865H8.22V7c0-.8-.016-1.833-1.117-1.833-1.117,0-1.289.872-1.289,1.775v3.427H3.667V3.446H5.728V4.39h.03A2.258,2.258,0,0,1,7.792,3.273c2.175,0,2.575,1.432,2.575,3.293v3.8Z" transform="translate(1167 3523.999)"/></g></svg>